<svg xmlns="http://www.w3.org/2000/svg" xmlns:xlink="http://www.w3.org/1999/xlink" width="500" zoomAndPan="magnify" viewBox="0 0 375 374.999991" height="500" preserveAspectRatio="xMidYMid meet" version="1.0"><defs><g/></defs><rect x="-37.5" width="450" fill="#ffffff" y="-37.499999" height="449.999989" fill-opacity="1"/><rect x="-37.5" width="450" fill="#ffffff" y="-37.499999" height="449.999989" fill-opacity="1"/><g fill="#000000" fill-opacity="0.4"><g transform="translate(137.640743, 293.752286)"><g><path d="M 90.65625 -235.953125 C 85.769531 -232.660156 81.28125 -229.867188 77.1875 -227.578125 C 73.101562 -225.296875 69.253906 -223.410156 65.640625 -221.921875 C 65.109375 -202.703125 64.65625 -185.5 64.28125 -170.3125 C 63.914062 -155.125 63.597656 -141.660156 63.328125 -129.921875 C 63.066406 -118.179688 62.851562 -108.035156 62.6875 -99.484375 C 62.53125 -90.941406 62.398438 -83.644531 62.296875 -77.59375 C 61.972656 -63.457031 61.863281 -53.789062 61.96875 -48.59375 C 61.863281 -45.195312 61.46875 -40.757812 60.78125 -35.28125 C 60.09375 -29.8125 58.738281 -23.734375 56.71875 -17.046875 C 54.695312 -10.359375 51.878906 -3.320312 48.265625 4.0625 C 44.660156 11.445312 39.960938 18.695312 34.171875 25.8125 C 28.378906 32.925781 21.316406 39.671875 12.984375 46.046875 C 4.648438 52.421875 -5.195312 57.941406 -16.5625 62.609375 C -8.601562 58.359375 -1.785156 53.285156 3.890625 47.390625 C 9.578125 41.503906 14.359375 35.132812 18.234375 28.28125 C 22.117188 21.425781 25.253906 14.28125 27.640625 6.84375 C 30.023438 -0.582031 31.828125 -7.988281 33.046875 -15.375 C 34.273438 -22.757812 35.101562 -29.898438 35.53125 -36.796875 C 35.957031 -43.703125 36.171875 -50.023438 36.171875 -55.765625 L 36.171875 -216.671875 C 32.867188 -216.347656 28.851562 -215.921875 24.125 -215.390625 C 19.40625 -214.859375 14.070312 -214.171875 8.125 -213.328125 C 13.863281 -217.992188 19.039062 -221.546875 23.65625 -223.984375 C 28.28125 -226.429688 32.238281 -228.242188 35.53125 -229.421875 C 39.351562 -230.691406 42.75 -231.429688 45.71875 -231.640625 C 49.4375 -231.535156 53.550781 -231.585938 58.0625 -231.796875 C 62.582031 -232.015625 66.9375 -232.304688 71.125 -232.671875 C 75.320312 -233.046875 79.171875 -233.523438 82.671875 -234.109375 C 86.179688 -234.703125 88.84375 -235.316406 90.65625 -235.953125 Z M 90.65625 -235.953125 "/></g></g></g><g fill="#000000" fill-opacity="1"><g transform="translate(123.220675, 279.332216)"><g><path d="M 90.65625 -235.953125 C 85.769531 -232.660156 81.28125 -229.867188 77.1875 -227.578125 C 73.101562 -225.296875 69.253906 -223.410156 65.640625 -221.921875 C 65.109375 -202.703125 64.65625 -185.5 64.28125 -170.3125 C 63.914062 -155.125 63.597656 -141.660156 63.328125 -129.921875 C 63.066406 -118.179688 62.851562 -108.035156 62.6875 -99.484375 C 62.53125 -90.941406 62.398438 -83.644531 62.296875 -77.59375 C 61.972656 -63.457031 61.863281 -53.789062 61.96875 -48.59375 C 61.863281 -45.195312 61.46875 -40.757812 60.78125 -35.28125 C 60.09375 -29.8125 58.738281 -23.734375 56.71875 -17.046875 C 54.695312 -10.359375 51.878906 -3.320312 48.265625 4.0625 C 44.660156 11.445312 39.960938 18.695312 34.171875 25.8125 C 28.378906 32.925781 21.316406 39.671875 12.984375 46.046875 C 4.648438 52.421875 -5.195312 57.941406 -16.5625 62.609375 C -8.601562 58.359375 -1.785156 53.285156 3.890625 47.390625 C 9.578125 41.503906 14.359375 35.132812 18.234375 28.28125 C 22.117188 21.425781 25.253906 14.28125 27.640625 6.84375 C 30.023438 -0.582031 31.828125 -7.988281 33.046875 -15.375 C 34.273438 -22.757812 35.101562 -29.898438 35.53125 -36.796875 C 35.957031 -43.703125 36.171875 -50.023438 36.171875 -55.765625 L 36.171875 -216.671875 C 32.867188 -216.347656 28.851562 -215.921875 24.125 -215.390625 C 19.40625 -214.859375 14.070312 -214.171875 8.125 -213.328125 C 13.863281 -217.992188 19.039062 -221.546875 23.65625 -223.984375 C 28.28125 -226.429688 32.238281 -228.242188 35.53125 -229.421875 C 39.351562 -230.691406 42.75 -231.429688 45.71875 -231.640625 C 49.4375 -231.535156 53.550781 -231.585938 58.0625 -231.796875 C 62.582031 -232.015625 66.9375 -232.304688 71.125 -232.671875 C 75.320312 -233.046875 79.171875 -233.523438 82.671875 -234.109375 C 86.179688 -234.703125 88.84375 -235.316406 90.65625 -235.953125 Z M 90.65625 -235.953125 "/></g></g></g><g fill="#000000" fill-opacity="0.4"><g transform="translate(192.064986, 354.500191)"><g><path d="M 90.28125 -231.3125 C 85.382812 -228.082031 80.984375 -225.347656 77.078125 -223.109375 C 73.171875 -220.878906 69.445312 -219.035156 65.90625 -217.578125 C 65.382812 -198.722656 64.941406 -181.847656 64.578125 -166.953125 C 64.210938 -152.066406 63.898438 -138.867188 63.640625 -127.359375 C 63.378906 -115.859375 63.171875 -105.914062 63.015625 -97.53125 C 62.859375 -89.15625 62.726562 -82 62.625 -76.0625 C 62.3125 -62.21875 62.207031 -52.742188 62.3125 -47.640625 C 62.207031 -43.785156 61.789062 -40.085938 61.0625 -36.546875 C 60.4375 -33.523438 59.445312 -30.320312 58.09375 -26.9375 C 56.75 -23.550781 54.878906 -20.664062 52.484375 -18.28125 C 58.722656 -18.070312 64.578125 -17.96875 70.046875 -17.96875 C 75.515625 -17.96875 80.75 -17.96875 85.75 -17.96875 C 100.007812 -17.96875 111.773438 -18.175781 121.046875 -18.59375 C 130.316406 -19.007812 137.707031 -19.5 143.21875 -20.0625 C 148.738281 -20.632812 152.644531 -21.15625 154.9375 -21.625 C 157.226562 -22.09375 158.582031 -22.429688 159 -22.640625 C 153.476562 -18.898438 148.894531 -15.675781 145.25 -12.96875 C 141.613281 -10.257812 138.363281 -8.046875 135.5 -6.328125 C 132.632812 -4.609375 129.820312 -3.332031 127.0625 -2.5 C 124.300781 -1.664062 121.097656 -1.25 117.453125 -1.25 L 93.40625 -1.25 C 86.632812 -1.25 79.289062 -1.222656 71.375 -1.171875 C 63.46875 -1.117188 55.921875 -1.015625 48.734375 -0.859375 C 41.546875 -0.703125 35.113281 -0.441406 29.4375 -0.078125 C 23.757812 0.285156 19.726562 0.726562 17.34375 1.25 C 20.25 -1.25 22.898438 -3.957031 25.296875 -6.875 C 27.691406 -9.789062 29.75 -13.378906 31.46875 -17.640625 C 33.1875 -21.910156 34.515625 -27.039062 35.453125 -33.03125 C 36.390625 -39.019531 36.859375 -46.234375 36.859375 -54.671875 L 36.859375 -212.421875 C 33.628906 -212.109375 29.722656 -211.691406 25.140625 -211.171875 C 20.566406 -210.648438 15.363281 -209.972656 9.53125 -209.140625 C 15.15625 -213.722656 20.226562 -217.207031 24.75 -219.59375 C 29.28125 -221.988281 33.160156 -223.757812 36.390625 -224.90625 C 40.140625 -226.15625 43.472656 -226.882812 46.390625 -227.09375 C 50.035156 -226.988281 54.066406 -227.039062 58.484375 -227.25 C 62.910156 -227.457031 67.179688 -227.742188 71.296875 -228.109375 C 75.410156 -228.472656 79.1875 -228.941406 82.625 -229.515625 C 86.0625 -230.085938 88.613281 -230.6875 90.28125 -231.3125 Z M 159 -22.640625 L 159 -22.796875 C 159.101562 -22.898438 159.207031 -22.953125 159.3125 -22.953125 Z M 159 -22.640625 "/></g></g></g><g fill="#000000" fill-opacity="1"><g transform="translate(177.928118, 340.363315)"><g><path d="M 90.28125 -231.3125 C 85.382812 -228.082031 80.984375 -225.347656 77.078125 -223.109375 C 73.171875 -220.878906 69.445312 -219.035156 65.90625 -217.578125 C 65.382812 -198.722656 64.941406 -181.847656 64.578125 -166.953125 C 64.210938 -152.066406 63.898438 -138.867188 63.640625 -127.359375 C 63.378906 -115.859375 63.171875 -105.914062 63.015625 -97.53125 C 62.859375 -89.15625 62.726562 -82 62.625 -76.0625 C 62.3125 -62.21875 62.207031 -52.742188 62.3125 -47.640625 C 62.207031 -43.785156 61.789062 -40.085938 61.0625 -36.546875 C 60.4375 -33.523438 59.445312 -30.320312 58.09375 -26.9375 C 56.75 -23.550781 54.878906 -20.664062 52.484375 -18.28125 C 58.722656 -18.070312 64.578125 -17.96875 70.046875 -17.96875 C 75.515625 -17.96875 80.75 -17.96875 85.75 -17.96875 C 100.007812 -17.96875 111.773438 -18.175781 121.046875 -18.59375 C 130.316406 -19.007812 137.707031 -19.5 143.21875 -20.0625 C 148.738281 -20.632812 152.644531 -21.15625 154.9375 -21.625 C 157.226562 -22.09375 158.582031 -22.429688 159 -22.640625 C 153.476562 -18.898438 148.894531 -15.675781 145.25 -12.96875 C 141.613281 -10.257812 138.363281 -8.046875 135.5 -6.328125 C 132.632812 -4.609375 129.820312 -3.332031 127.0625 -2.5 C 124.300781 -1.664062 121.097656 -1.25 117.453125 -1.25 L 93.40625 -1.25 C 86.632812 -1.25 79.289062 -1.222656 71.375 -1.171875 C 63.46875 -1.117188 55.921875 -1.015625 48.734375 -0.859375 C 41.546875 -0.703125 35.113281 -0.441406 29.4375 -0.078125 C 23.757812 0.285156 19.726562 0.726562 17.34375 1.25 C 20.25 -1.25 22.898438 -3.957031 25.296875 -6.875 C 27.691406 -9.789062 29.75 -13.378906 31.46875 -17.640625 C 33.1875 -21.910156 34.515625 -27.039062 35.453125 -33.03125 C 36.390625 -39.019531 36.859375 -46.234375 36.859375 -54.671875 L 36.859375 -212.421875 C 33.628906 -212.109375 29.722656 -211.691406 25.140625 -211.171875 C 20.566406 -210.648438 15.363281 -209.972656 9.53125 -209.140625 C 15.15625 -213.722656 20.226562 -217.207031 24.75 -219.59375 C 29.28125 -221.988281 33.160156 -223.757812 36.390625 -224.90625 C 40.140625 -226.15625 43.472656 -226.882812 46.390625 -227.09375 C 50.035156 -226.988281 54.066406 -227.039062 58.484375 -227.25 C 62.910156 -227.457031 67.179688 -227.742188 71.296875 -228.109375 C 75.410156 -228.472656 79.1875 -228.941406 82.625 -229.515625 C 86.0625 -230.085938 88.613281 -230.6875 90.28125 -231.3125 Z M 159 -22.640625 L 159 -22.796875 C 159.101562 -22.898438 159.207031 -22.953125 159.3125 -22.953125 Z M 159 -22.640625 "/></g></g></g></svg>